<svg width="269" height="268" viewBox="0 0 269 268" fill="none" xmlns="http://www.w3.org/2000/svg">
<path d="M60.9532 224.951L61.4127 190.433C73.0176 183.926 84.3557 177.716 95.1603 170.009C98.7322 167.46 102.171 165.207 106.128 162.969V246.071C106.098 250.517 106.098 249.035 106.098 250.517C114.961 252.355 121.319 253.348 130.168 253.882C163.411 255.868 195.692 243.403 219.628 220.757C266.67 176.264 270.508 102.929 228.313 53.7824C228.624 49.3361 228.12 45.3195 229.424 40.147C286.397 97.6824 279.875 191.115 215.493 240.009C189.882 259.469 158.506 268.688 126.003 266.895C83.9111 264.553 45.3763 242.218 21.959 206.795C25.3827 204.113 28.9545 202.764 33.1044 200.896C41.6858 213.109 47.8662 221.379 60.9532 230.509C60.9603 224.419 60.8495 232.169 60.9384 224.951H60.9532Z" fill="#49A35F"/>
<path d="M214.29 228.197C203.589 239.298 187.004 249.48 170.553 253.482L170.479 109.836C173.28 105.627 176.733 102.796 179.979 99.061L208.998 65.6839C210.08 64.4389 214.186 67.2104 214.186 69.1075L214.29 228.197Z" fill="#49A35F"/>
<path d="M114.945 256.446L114.9 156.804C131.204 145.066 145.862 132.053 161.616 117.365L161.839 252.949C146.662 256.817 131.456 257.38 114.945 256.446Z" fill="#49A35F"/>
<path d="M17.9836 198.866C27.5446 194.938 17.9688 198.836 27.6024 194.938C37.1783 190.492 33.6791 192.3 37.2213 190.536C85.5529 166.408 125.273 130.2 158.013 87.5003C166.254 76.755 173.975 66.484 181.253 55.1459C183.194 52.1224 185.832 49.5583 186.988 46.0013L176.258 41.3326C190.353 31.4321 204.151 22.7173 218.305 13.884C219.254 13.2911 220.039 12.4463 220.869 13.0836C221.284 13.3949 222.055 14.0915 222.04 15.0252L221.833 57.9619L207.871 51.6333C174.998 94.4217 145.178 127.917 101.204 158.879C76.2008 176.471 49.5673 190.818 20.9033 201.474C20.134 201.608 19.9858 201.445 19.393 200.867C18.9928 200.467 18.3096 199.355 17.9688 198.836L17.9836 198.866Z" fill="white"/>
<path d="M27.6056 194.939C24.4042 195.798 21.5734 199.192 17.9867 198.866C-3.65205 165.593 -5.35647 117.143 10.6651 80.1049C42.2044 7.19998 131.798 -21.5381 200.671 17.4265L191.097 23.2216C157.512 6.51821 119.141 5.19914 84.3851 19.8868C69.1639 26.3192 56.1806 35.7602 44.635 47.5282C7.22662 85.6776 0.52749 144.591 26.1087 191.07C26.8645 192.449 27.6797 193.545 27.6056 194.939Z" fill="#49A35F"/>
<path d="M103.131 137.536C90.2812 150.134 76.6161 160.731 61.632 170.765C60.7428 168.142 60.9799 165.696 61.0095 163.058L61.4393 126.984C61.469 124.761 64.7148 122.374 66.7453 122.36L96.5801 122.256C99.3368 122.256 102.642 123.753 103.057 126.732C103.546 130.244 103.161 133.446 103.131 137.536Z" fill="#49A35F"/>
<path d="M151.969 83.3948C139.623 100.839 126.877 116.253 111.33 130.081L111.285 87.5002C111.285 84.7583 114.086 82.7575 116.591 82.713L137.222 82.3276C142.083 82.9798 146.885 81.468 151.969 83.3948Z" fill="#49A35F"/>
</svg>
