<svg width="804" height="181" viewBox="0 0 804 181" fill="none" xmlns="http://www.w3.org/2000/svg">
<path d="M41.1264 151.778L41.4364 128.488C49.2664 124.098 56.9164 119.908 64.2064 114.708C66.6164 112.988 68.9364 111.468 71.6064 109.958V166.028C71.5859 169.028 71.5859 168.028 71.5859 169.028C77.5659 170.268 81.8564 170.938 87.8264 171.298C110.256 172.638 132.036 164.228 148.186 148.948C179.926 118.928 182.516 69.4479 154.046 36.2879C154.256 33.2879 153.916 30.5779 154.796 27.0879C193.236 65.9079 188.836 128.948 145.396 161.938C128.116 175.068 106.946 181.288 85.0164 180.078C56.6164 178.498 30.6164 163.428 14.8164 139.528C17.1264 137.718 19.5364 136.808 22.3364 135.548C28.1264 143.788 32.2964 149.368 41.1264 155.528C41.1312 151.419 41.0564 156.648 41.1164 151.778H41.1264Z" fill="#49A35F"/>
<path d="M144.585 153.968C137.365 161.458 126.175 168.328 115.075 171.028L115.025 74.1079C116.915 71.2679 119.245 69.3579 121.435 66.8379L141.015 44.3179C141.745 43.4779 144.515 45.3479 144.515 46.6279L144.585 153.968Z" fill="#49A35F"/>
<path d="M77.5554 173.028L77.5254 105.798C88.5254 97.8777 98.4154 89.0977 109.045 79.1877L109.195 170.668C98.9554 173.278 88.6954 173.658 77.5554 173.028Z" fill="#49A35F"/>
<path d="M12.135 134.178C18.5859 131.528 12.125 134.158 18.625 131.528C25.0859 128.528 22.725 129.748 25.115 128.558C57.725 112.278 84.525 87.8479 106.615 59.0379C112.175 51.7879 117.385 44.8579 122.295 37.2079C123.605 35.1679 125.385 33.4379 126.165 31.0379L118.925 27.8879C128.435 21.2079 137.745 15.3278 147.295 9.36785C147.935 8.96785 148.465 8.39785 149.025 8.82785C149.305 9.03785 149.825 9.50785 149.815 10.1379L149.675 39.1079L140.255 34.8378C118.075 63.7078 97.955 86.3078 68.285 107.198C51.415 119.068 33.445 128.748 14.105 135.938C13.5859 136.028 13.4859 135.918 13.0859 135.528C12.8159 135.258 12.355 134.508 12.125 134.158L12.135 134.178Z" fill="#F2F2F1"/>
<path d="M18.6259 131.528C16.4659 132.108 14.5559 134.398 12.1359 134.178C-2.46409 111.728 -3.61409 79.0379 7.19591 54.0479C28.4759 4.85793 88.9259 -14.5321 135.396 11.7579L128.936 15.6679C106.276 4.39793 80.3859 3.50793 56.9359 13.4179C46.6659 17.7579 37.9059 24.1279 30.1159 32.0679C4.87591 57.8079 0.355906 97.5579 17.6159 128.918C18.1259 129.848 18.6759 130.588 18.6259 131.528Z" fill="#49A35F"/>
<path d="M69.585 92.7978C60.915 101.298 51.695 108.448 41.585 115.218C40.985 113.448 41.145 111.798 41.165 110.018L41.455 85.6778C41.475 84.1778 43.665 82.5678 45.035 82.5578L65.165 82.4878C67.025 82.4878 69.255 83.4978 69.535 85.5078C69.865 87.8778 69.605 90.0378 69.585 92.7978Z" fill="#49A35F"/>
<path d="M102.536 56.2679C94.2059 68.0379 85.6059 78.4379 75.1159 87.7679L75.0859 59.0379C75.0859 57.1879 76.9759 55.8379 78.6659 55.8079L92.5859 55.5479C95.8659 55.9879 99.1059 54.9679 102.536 56.2679Z" fill="#49A35F"/>
<path d="M784.586 129C782.356 128.09 781.265 125.62 779.985 123.65C776.405 118.11 773.145 112.65 768.505 107.26C763.645 113 760.085 119.06 756.035 125.02C754.935 126.64 753.506 128.39 751.586 129H736.086C735.286 129 734.705 127.95 734.475 127.41C734.275 126.94 734.305 126.17 734.735 125.56L745.305 110.71L752.035 101.43C754.105 98.5701 756.085 95.6602 757.895 92.6002C756.025 88.2702 753.105 85.2301 750.565 81.5401L737.759 67.4631C737.339 66.8631 736.289 66.5431 735.839 66.6931C735.389 66.8431 734.559 67.3531 734.249 68.1131L712.345 115.29L705.195 133.18L697.265 153.36C696.125 156.26 693.215 157.1 690.305 156.64C686.525 156.05 678.895 156.97 678.045 155.8C677.005 154.39 680.615 146.65 681.615 143.93C683.045 140.06 684.695 136.42 686.335 132.67L691.605 120.61L688.915 113.73L673.135 78.6201C671.265 74.4501 667.475 66.3701 666.205 62.4201C665.995 61.7701 664.965 60.9501 665.195 60.3001C665.375 59.7801 665.365 58.3501 666.325 58.3401C672.035 58.2801 677.635 57.9801 683.445 58.4801C685.015 59.0201 685.875 61.9401 686.465 63.4301C687.775 66.7801 689.445 69.5201 690.545 72.9001L701.165 96.0702C703.315 92.0602 704.475 88.3001 706.085 84.3601L715.635 60.9701C716.305 59.3201 717.586 57.9999 719.586 57.9999C725.556 57.9999 723.586 57.9998 732.586 57.9999C738.586 57.9997 735.405 57.9997 738.586 57.9997C753.277 58 748.986 57.96 754.086 58C756.496 58.93 758.215 62.3601 759.615 64.3401L768.235 76.4401C769.245 77.8601 770.215 75.1501 770.755 74.5501C774.915 69.9501 779.745 59.0401 784.665 58.4301C789.585 57.8201 794.565 58.5201 799.555 58.2201C800.705 58.1501 801.175 58.9001 801.545 59.6201C802.085 60.6701 801.355 61.1501 800.615 62.0301C796.965 66.3901 794.125 71.1201 790.845 75.7901C787.015 81.2401 782.735 86.1301 779.525 92.0101C778.925 93.1101 780.575 94.6301 781.095 95.3801L792.175 111.35L803.586 129C799.086 129 799.086 129 796.086 129C791.586 129 792.086 129 784.586 129Z" fill="#F2F2F1"/>
<path d="M308.117 35.0099L293.767 71.2699L283.967 95.9699L272.897 124.42C272.227 126.14 271.726 128.75 269.586 129C264.086 129 260.106 129.06 255.586 129C253.966 128.98 253.417 127.69 252.857 126.28L239.877 93.3299L232.047 73.1399L215.047 30.3699C215.417 27.6599 214.347 24.8899 217.177 24.8499C222.927 24.7599 228.517 24.6699 234.187 24.8899C236.007 26.6599 236.487 28.9099 237.357 31.1399L247.487 57.0199L262.427 95.6599C264.827 91.5699 265.967 87.8099 267.497 83.8499L277.147 58.9399L288.647 28.9799C289.257 27.3899 289.897 25.1699 291.877 24.9699C297.777 24.3999 303.777 24.4899 309.517 24.9699C311.717 27.7999 309.317 32.0299 308.137 35.0199L308.117 35.0099Z" fill="#F2F2F1"/>
<path d="M358.808 107.039L366.954 114.156C367.555 114.679 367.975 115.141 368.045 115.764C368.145 116.689 367.515 117.091 366.874 117.745C360.96 123.655 353.684 127.425 345.288 128.531C334.56 129.948 322.311 128.33 313.815 121.253C299.774 109.552 296.912 87.8891 305.118 72.6698C312.514 58.9483 327.725 52.0624 343.106 54.475C356.056 56.5056 365.973 66.367 369.156 79.0732C370.807 85.6776 370.657 90.1509 370.407 97.2076L320.539 97.3584C321.34 105.501 327.485 111.1 335.28 112.015C343.627 112.99 349.811 110.276 355.596 104.476C357.037 104.797 357.687 106.064 358.808 107.039ZM352.083 83.1343C351.853 79.0631 350.352 75.6151 347.63 73.3735C342.996 69.5636 337.532 68.3674 331.428 70.1768C323.612 72.4788 319.839 81.6365 320.269 82.4407C320.439 82.7624 321.23 83.1645 321.81 83.1645L352.083 83.1343Z" fill="#F2F2F1"/>
<path d="M587.846 92.5C587.846 112.654 571.5 129 551.346 129C531.191 129 514.846 112.654 514.846 92.5C514.846 72.3457 531.191 56 551.346 56C571.5 56 587.846 72.3457 587.846 92.5ZM565.188 105.376C567.817 101.673 568.9 98.0195 568.967 93.6696C569.035 89.0588 568.552 84.1676 565.758 80.2528C559.146 70.9828 545.546 70.2482 538.064 78.8898C533.724 83.897 533.173 90.5281 534.091 96.8208C535.155 104.138 539.698 109.89 546.31 111.775C553.453 113.814 560.828 111.523 565.198 105.376H565.188Z" fill="#F2F2F1"/>
<path d="M622.528 76.1799C619.778 78.1399 615.608 81.1008 615.588 84.6808V129H596.588L596.648 61.5399C596.648 60.7599 596.586 59.5 596.586 59C603.086 59 607.586 59 615.586 59V65C621.926 58.57 630.188 55.7499 639.128 56.0199C652.268 56.4299 663.688 65.9799 663.758 79.6799L664.018 129H644.648V86.5599C644.028 82.9199 642.988 79.4099 640.108 76.8499C635.388 72.6499 627.958 72.2899 622.538 76.1599L622.528 76.1799Z" fill="#F2F2F1"/>
<path d="M458.196 128.52C449.746 129.8 447.096 130.06 438.686 129.6C425.456 128.88 417.476 120.47 417.386 107.01L417.166 75.42C413.096 74.6 409.286 74.91 404.996 74.87C404.866 69.66 404.866 64.56 405.046 59.34C405.106 57.53 415.446 58.76 417.106 58.11L417.646 35.49C421.256 34.59 424.866 34.85 428.556 35.06C431.446 35.23 434.226 34.67 436.966 35.42L437.496 58.19L455.576 58.28C456.656 58.28 457.416 58.82 457.416 60.01V74.85C454.576 74.87 451.946 75.11 449.116 75.16L436.996 75.35L437.136 94.87L437.466 104.94C437.586 108.8 440.296 111.63 444.216 111.96C448.796 112.35 453.286 111.94 458.186 112.08L458.206 128.51L458.196 128.52Z" fill="#F2F2F1"/>
<path d="M379.587 25L379.587 128.997L399.588 128.997L399.588 25L379.587 25Z" fill="#F2F2F1"/>
<path d="M468.165 129C466.166 127.5 466.576 123.54 466.586 119.83V58C472.586 58 479.586 58 485.586 58C485.586 61 485.586 59 485.586 69C488.806 65.2 493.386 62.2201 497.736 60.2101C501.896 57.6601 506.736 56.1101 511.856 56.8401L512.056 76.6201C502.286 76.5201 493.276 79.9401 486.546 87.1601V129H468.165Z" fill="#F2F2F1"/>
<path d="M731.02 26.5532C733.049 23.1489 738.123 23.1489 740.152 26.5532L748.372 40.3404C750.401 43.7447 747.864 48 743.805 48H727.367C723.308 48 720.771 43.7447 722.8 40.3404L731.02 26.5532Z" fill="#068B5E"/>
</svg>
